<?xml version="1.0" standalone="no"?>
<!DOCTYPE svg PUBLIC "-//W3C//DTD SVG 20010904//EN"
 "http://www.w3.org/TR/2001/REC-SVG-20010904/DTD/svg10.dtd">
<svg version="1.0" xmlns="http://www.w3.org/2000/svg"
 width="650.000000pt" height="650.000000pt" viewBox="0 0 650.000000 650.000000"
 preserveAspectRatio="xMidYMid meet">
<metadata>
Created by potrace 1.11, written by Peter Selinger 2001-2013
</metadata>
<g transform="translate(0.000000,650.000000) scale(0.100000,-0.100000)"
fill="#000000" stroke="none">
<path d="M2915 6381 c-2 -2 -28 -5 -57 -7 -29 -2 -64 -6 -78 -9 -14 -3 -45 -8
-70 -11 -25 -3 -53 -7 -62 -10 -9 -3 -25 -6 -35 -8 -10 -2 -35 -6 -55 -10 -25
-5 -38 -12 -38 -23 0 -13 8 -14 53 -8 70 10 606 13 637 4 14 -5 55 -10 92 -12
36 -3 72 -8 79 -12 6 -5 30 -9 53 -10 22 -1 84 -12 136 -24 52 -12 102 -23
110 -25 9 -1 20 -5 25 -8 6 -3 26 -9 45 -13 56 -12 308 -104 390 -143 41 -19
77 -36 80 -37 7 -1 71 -35 140 -72 126 -68 390 -251 497 -345 50 -44 265 -258
259 -258 -2 0 8 -13 22 -28 72 -75 152 -178 233 -298 52 -77 60 -90 99 -158 9
-17 30 -53 46 -81 52 -89 132 -263 160 -345 10 -30 21 -59 25 -65 3 -5 16 -44
28 -85 13 -41 27 -86 32 -100 12 -34 47 -185 54 -240 4 -24 8 -47 11 -51 2 -4
6 -30 9 -59 3 -29 8 -57 11 -62 4 -6 8 -38 9 -71 2 -34 7 -93 11 -132 9 -83 9
-308 0 -385 -3 -30 -8 -88 -11 -128 -3 -41 -7 -77 -10 -82 -3 -5 -8 -30 -11
-57 -3 -26 -7 -56 -10 -66 -3 -10 -7 -32 -9 -49 -3 -17 -9 -45 -15 -62 -5 -17
-12 -48 -14 -68 -3 -21 -10 -48 -17 -60 -7 -13 -12 -25 -11 -28 6 -22 -89
-286 -154 -428 -19 -41 -34 -76 -34 -78 0 -3 -25 -48 -55 -100 -30 -53 -55
-100 -55 -105 0 -5 -4 -9 -8 -9 -5 0 -14 -12 -21 -27 -50 -109 -260 -373 -441
-553 -105 -105 -359 -312 -404 -329 -6 -2 -16 -10 -23 -16 -7 -7 -61 -40 -120
-74 -59 -34 -115 -66 -123 -71 -29 -18 -206 -104 -235 -116 -165 -63 -333
-121 -374 -129 -12 -2 -31 -7 -41 -10 -19 -6 -46 -12 -90 -21 -14 -3 -34 -8
-45 -11 -11 -3 -33 -7 -50 -9 -16 -2 -41 -5 -55 -9 -14 -3 -43 -8 -65 -10 -22
-3 -51 -7 -65 -10 -48 -11 -176 -17 -355 -18 -225 0 -362 9 -475 33 -25 6 -61
12 -80 14 -19 3 -42 7 -50 10 -8 3 -26 8 -40 10 -41 8 -63 13 -110 27 -50 14
-54 15 -90 22 -132 28 -489 188 -665 297 -44 28 -89 54 -101 59 -11 5 -27 15
-35 23 -8 7 -34 27 -59 43 -48 32 -52 36 -120 90 -113 91 -152 126 -250 225
-58 58 -119 122 -137 141 -38 42 -143 174 -168 211 -181 271 -228 350 -286
486 -8 17 -18 32 -23 32 -4 0 -6 6 -3 14 3 8 0 20 -8 26 -7 6 -16 22 -19 35
-4 14 -11 25 -17 25 -6 0 -6 -6 0 -19 6 -10 7 -21 3 -25 -3 -4 -1 -10 5 -14 7
-4 13 -22 15 -40 1 -18 6 -32 11 -32 4 0 6 -4 3 -8 -3 -5 2 -21 10 -37 8 -16
16 -36 18 -44 6 -32 121 -273 177 -371 72 -127 235 -365 288 -421 13 -13 36
-42 52 -65 47 -65 336 -343 434 -419 50 -38 92 -72 95 -75 3 -3 12 -9 21 -15
9 -5 51 -34 93 -62 43 -29 80 -53 83 -53 4 0 14 -7 24 -16 40 -36 372 -202
499 -249 25 -9 54 -21 65 -25 52 -21 112 -42 129 -46 11 -2 40 -10 65 -18 61
-20 169 -47 204 -52 15 -2 32 -6 38 -9 5 -4 27 -8 49 -10 21 -2 43 -6 48 -9 5
-3 34 -8 63 -11 30 -3 68 -8 84 -10 92 -14 165 -17 405 -16 273 1 307 2 400
16 30 5 66 9 80 10 14 1 34 4 45 8 11 3 35 9 53 12 18 3 65 12 105 21 39 8 79
17 87 19 8 1 35 9 60 16 25 7 54 14 64 16 11 2 25 8 33 14 7 6 13 9 13 6 0 -4
19 1 43 9 23 9 47 17 52 18 6 2 17 6 25 9 8 4 33 13 55 21 96 33 265 109 265
119 0 6 3 8 6 5 8 -8 230 108 265 138 8 8 21 14 27 14 6 0 17 6 24 12 7 7 49
38 93 68 73 49 194 140 221 165 6 5 42 38 80 72 101 89 295 290 343 353 14 19
32 39 38 43 7 4 13 12 13 17 0 6 7 18 15 27 57 64 195 272 195 292 0 5 4 11 9
13 11 4 127 221 164 308 9 19 27 62 42 95 15 33 28 67 30 75 2 8 18 53 35 100
18 47 33 90 34 95 2 6 8 28 14 50 6 22 13 51 16 65 2 14 9 37 15 52 6 16 8 28
5 28 -2 0 0 8 5 19 11 19 17 50 26 121 3 24 8 47 11 52 3 5 7 31 9 58 2 27 6
57 9 68 4 10 8 47 11 83 2 35 7 84 11 109 8 60 8 370 0 440 -4 30 -9 82 -11
115 -2 33 -6 76 -10 95 -3 19 -8 49 -9 65 -2 17 -6 37 -9 45 -3 8 -9 33 -12
54 -3 21 -7 48 -10 60 -3 12 -7 32 -9 46 -38 211 -185 603 -306 815 -22 39
-43 78 -46 88 -4 9 -10 17 -15 17 -5 0 -8 3 -7 8 2 10 -35 72 -44 72 -5 0 -8
5 -8 12 0 6 -11 26 -25 44 -14 18 -25 35 -25 38 0 19 -206 276 -305 380 -16
17 -41 45 -55 61 -14 17 -55 55 -90 87 -36 31 -82 72 -104 92 -21 20 -40 36
-42 36 -4 0 -42 30 -137 106 -9 8 -21 14 -26 14 -5 0 -17 7 -26 16 -19 20
-133 97 -189 128 -23 13 -61 35 -86 49 -50 30 -266 137 -275 137 -3 0 -24 9
-48 19 -67 30 -242 95 -287 106 -8 2 -57 16 -109 30 -52 14 -108 27 -125 30
-17 2 -43 8 -57 14 -15 5 -29 8 -32 5 -2 -2 -15 0 -29 5 -14 5 -48 12 -77 15
-29 3 -62 8 -74 11 -12 3 -49 8 -82 10 -73 6 -615 12 -620 6z"/>
<path d="M2465 6300 c-2 -3 7 -7 21 -8 13 -1 24 2 24 7 0 10 -39 11 -45 1z"/>
<path d="M1796 5417 c-16 -5 -25 -17 -27 -35 -3 -22 -3 -1709 0 -1779 1 -14
10 -24 29 -30 15 -5 444 -8 962 -7 647 1 942 -1 958 -9 12 -6 22 -18 22 -28 0
-17 -105 -171 -121 -177 -5 -2 -9 -9 -9 -16 0 -7 -11 -25 -25 -40 -14 -15 -25
-31 -25 -37 0 -5 -4 -9 -10 -9 -5 0 -10 -5 -10 -10 0 -9 -57 -91 -108 -155
-10 -13 -93 -128 -206 -285 -49 -69 -92 -127 -96 -130 -3 -3 -21 -29 -39 -57
-18 -29 -37 -53 -42 -53 -5 0 -9 -4 -9 -10 0 -5 -49 -76 -108 -157 -59 -81
-115 -159 -124 -173 -10 -14 -78 -108 -152 -210 -74 -102 -177 -243 -228 -314
-51 -71 -98 -134 -103 -140 -6 -6 -35 -47 -65 -91 -30 -44 -79 -111 -107 -149
-58 -76 -65 -102 -30 -108 12 -2 185 -3 385 -2 l362 1 26 24 c14 13 35 39 47
59 11 19 24 37 27 40 3 3 22 27 41 55 18 27 40 56 47 63 6 7 12 17 12 21 0 4
8 16 18 27 9 10 44 57 77 104 32 47 64 90 69 97 27 31 36 43 36 47 0 3 55 81
122 173 67 93 140 193 162 224 23 31 73 101 113 156 94 129 109 150 162 225
24 35 48 65 53 66 4 2 8 8 8 14 0 6 11 24 25 42 27 33 34 43 50 68 6 9 44 62
85 119 92 126 135 186 158 219 9 14 19 27 22 30 3 3 21 28 40 55 19 28 38 55
43 60 4 6 35 48 68 95 33 47 66 93 74 102 8 10 27 37 42 60 15 24 31 45 34 48
3 3 23 30 44 60 21 30 48 69 61 85 22 30 24 63 4 110 -5 11 -27 74 -50 140
-57 165 -69 191 -94 202 -12 5 -446 9 -1028 8 -939 -1 -1009 1 -1030 17 l-23
17 -1 626 c0 575 -2 627 -17 643 -15 15 -47 17 -297 17 -154 0 -291 -4 -304
-8z"/>
</g>
</svg>
